<?xml version="1.0"?>
<svg xmlns="http://www.w3.org/2000/svg" height="512px" viewBox="0 0 512.00016 512" width="512px"><path d="m510.5 454.363281c-4.199219-10.21875-15.855469-15.105469-26.070312-10.910156-.375.152344-20.621094 8.109375-62.644532 15.582031 11.625-11.957031 22.285156-25.351562 31.894532-40.1875 6-9.269531 3.351562-21.652344-5.917969-27.65625-9.269531-6-21.652344-3.351562-27.65625 5.917969-20.15625 31.125-45.488281 54.707031-75.296875 70.09375-.925782.476563-1.78125 1.035156-2.597656 1.628906-25.210938 1.925781-53.90625 3.144531-86.226563 3.144531-31.886719 0-60.210937-1.183593-85.109375-3.066406-.917969-.675781-1.886719-1.296875-2.941406-1.824218-72.359375-36.164063-105.59375-106.292969-119.371094-177.6875 8.566406 1.027343 16.765625 3.992187 23.75 8.753906 13.453125 9.179687 27.207031 13.832031 40.875 13.832031 13.671875 0 27.425781-4.652344 40.878906-13.832031 17.96875-12.253906 43.070313-12.257813 61.042969 0 13.453125 9.179687 27.207031 13.832031 40.875 13.832031 13.671875 0 27.421875-4.652344 40.878906-13.832031 17.972657-12.257813 43.070313-12.257813 61.042969 0 13.453125 9.179687 27.207031 13.832031 40.875 13.832031 13.671875 0 27.425781-4.652344 40.878906-13.832031 6.710938-4.578125 14.550782-7.496094 22.761719-8.628906-2.351563 11.1875-5.128906 22.078124-8.339844 32.652343-3.207031 10.566407 2.757813 21.738281 13.328125 24.945313 10.566406 3.207031 21.734375-2.757813 24.945313-13.328125 13.011719-42.878907 19.613281-90.25 19.613281-140.800781 0-11.042969-8.953125-19.996094-20-19.996094h-56.546875l73.367187-143.910156c5.015626-9.839844 1.105469-21.882813-8.734374-26.898438-9.835938-5.019531-21.882813-1.109375-26.902344 8.734375l-82.625 162.074219h-370.527344c-11.046875 0-20 8.953125-20 19.996094 0 73.175781 11.878906 136.316406 35.300781 187.671874 13.875 30.417969 31.6875 56.472657 53.242188 77.996094-40.0625-7.308594-59.355469-14.945312-59.910157-15.167968-10.179687-4.207032-21.851562.613281-26.09375 10.792968-4.25 10.195313.570313 21.902344 10.769532 26.152344 3.089844 1.285156 77.585937 31.535156 242.675781 31.535156 165.042969 0 240.457031-30.210937 243.589844-31.5 10.214843-4.195312 15.121093-15.894531 10.925781-26.109375zm-38.90625-241.371093c-.464844 12.25-1.363281 24.261718-2.6875 36.015624-18.515625.253907-36.699219 5.8125-51.785156 16.105469-6.691406 4.5625-12.859375 6.875-18.339844 6.875-3.75 0-7.828125-1.109375-12.167969-3.253906l28.417969-55.742187zm-101.457031 0-19.761719 38.761718c-7.425781-1.820312-15.132812-2.765625-22.992188-2.765625-19.25 0-37.597656 5.574219-53.058593 16.125-6.691407 4.5625-12.859375 6.875-18.339844 6.875s-11.648437-2.3125-18.339844-6.875c-15.464843-10.550781-33.8125-16.125-53.058593-16.125-19.25 0-37.597657 5.574219-53.058594 16.125-6.691406 4.5625-12.863282 6.875-18.34375 6.875-5.476563 0-11.648438-2.3125-18.339844-6.875-15.179688-10.359375-33.5-15.921875-52.136719-16.109375-1.230469-12.207031-1.992187-24.265625-2.382812-36.011718zm-294.140625-102.996094c0-20.753906 14.363281-33.546875 25.902344-43.828125 11.394531-10.148438 17.84375-16.371094 17.84375-26.164063 0-11.046875 8.953124-20 20-20 11.042968 0 20 8.953125 20 20 0 28.207032-18.058594 44.289063-31.238282 56.03125-5.28125 4.703125-12.511718 11.144532-12.511718 13.960938 0 11.046875-8.953126 20-19.996094 20-11.046875 0-20-8.953125-20-20zm105.992187-.199219c0-24.085937 16.648438-38.917969 31.335938-52 15.367187-13.6875 24.785156-22.839844 24.785156-37.792969 0-11.046875 8.953125-19.99999975 20-19.99999975s20 8.95312475 20 19.99999975c0 33.652344-22.066406 53.308594-38.183594 67.660156-9.222656 8.21875-17.9375 15.980469-17.9375 22.132813 0 11.046875-8.957031 20-20 20-11.046875 0-20-8.953125-20-20zm108.808594.199219c0-20.753906 14.359375-33.546875 25.902344-43.828125 11.394531-10.148438 17.84375-16.371094 17.84375-26.164063 0-11.046875 8.953125-20 20-20 11.042969 0 19.996093 8.953125 19.996093 20 0 28.207032-18.054687 44.289063-31.238281 56.03125-5.277343 4.703125-12.507812 11.144532-12.507812 13.960938 0 11.046875-8.953125 20-20 20-11.042969 0-19.996094-8.953125-19.996094-20zm0 0" fill="#6e6e6e"/></svg>
