<svg height="512pt" viewBox="-112 0 512 512.00103" width="512pt" xmlns="http://www.w3.org/2000/svg"><path d="m282.726562 123.960938h-44.554687v-91.394532l-18.339844-31.6875c-.316406-.542968-.898437-.878906-1.527343-.878906h-149.332032c-.625 0-1.207031.332031-1.523437.875l-18.476563 31.691406v91.394532h-44.554687c-2.441407 0-4.417969 1.976562-4.417969 4.421874v379.1875c0 2.445313 1.976562 4.429688 4.417969 4.429688h278.308593c2.441407 0 4.417969-1.984375 4.417969-4.429688v-379.191406c0-2.441406-1.976562-4.417968-4.417969-4.417968zm-77.121093 0h-124.066407v-91.394532h124.066407zm0 0" fill="#ebebf0"/><path d="m48.972656 32.566406h32.566406v101.746094h-32.566406zm0 0" fill="#ffc14f"/><path d="m205.605469 32.566406h32.566406v101.746094h-32.566406zm0 0" fill="#ffc14f"/><path d="m287.144531 128.378906v379.191406c0 2.441407-1.976562 4.429688-4.417969 4.429688h-278.308593c-2.441407 0-4.417969-1.988281-4.417969-4.429688v-379.191406c0-2.441406 1.976562-4.417968 4.417969-4.417968h278.308593c2.441407 0 4.417969 1.976562 4.417969 4.417968zm0 0" fill="#f29500"/><path d="m287.144531 128.378906v346.441406h-254.269531c-2.441406 0-4.417969-1.976562-4.417969-4.421874v-346.4375h254.269531c2.441407 0 4.417969 1.976562 4.417969 4.417968zm0 0" fill="#ffa90b"/><path d="m80.632812 167.734375c-25.011718 0-45.289062 41.375-45.289062 74.464844 0 24.179687 10.832031 44.996093 26.421875 54.464843v159.289063c0 10.417969 8.445313 18.867187 18.867187 18.867187 10.417969 0 18.863282-8.449218 18.863282-18.867187v-159.289063c15.589844-9.46875 26.421875-30.285156 26.421875-54.464843 0-33.089844-20.273438-74.464844-45.285157-74.464844zm0 0" fill="#c0694e"/><path d="m251.804688 249.847656v-81.789062c0-4.25-3.277344-7.953125-7.523438-8.082032-4.394531-.132812-8 3.390626-8 7.757813v71.113281c0 6.074219-4.925781 11-11 11h-.003906c-6.078125 0-11.003906-4.925781-11.003906-11v-70.789062c0-4.25-3.273438-7.953125-7.523438-8.082032-4.394531-.132812-7.996094 3.390626-7.996094 7.757813v71.113281c0 6.074219-4.925781 11-11.003906 11s-11.003906-4.925781-11.003906-11v-70.785156c0-4.25-3.273438-7.957031-7.523438-8.085938-4.394531-.128906-7.996094 3.394532-7.996094 7.757813v82.113281.011719 10.429687c0 12.503907 5.070313 23.832032 13.265626 32.027344 3.78125 3.78125 8.234374 6.886719 13.152343 9.148438v154.035156c0 10.230469 7.957031 18.941406 18.179688 19.308594 10.734375.378906 19.554687-8.207032 19.554687-18.855469v-154.488281c15.589844-7.160156 26.425782-22.898438 26.425782-41.175782zm0 0" fill="#c0694e"/><path d="m48.972656 32.566406 18.476563-31.691406c.316406-.542969.898437-.875 1.527343-.875h149.328126c.628906 0 1.210937.335938 1.527343.878906l18.339844 31.6875zm0 0" fill="#ffb52d"/></svg>