<?xml version="1.0"?>
<svg xmlns="http://www.w3.org/2000/svg" height="512px" viewBox="0 0 512.00026 512" width="512px"><path d="m492 332c11.046875 0 20-8.953125 20-20v-292c0-6.28125-2.949219-12.195312-7.964844-15.976562-5.019531-3.777344-11.519531-4.976563-17.554687-3.246094-23.167969 6.652344-52.695313 4.777344-90.078125 2.398437-23.40625-1.488281-49.933594-3.175781-80.402344-3.175781-23.875 0-45.328125 10.527344-60 27.167969-14.671875-16.640625-36.121094-27.167969-60-27.167969-30.464844 0-56.996094 1.6875-80.402344 3.175781-37.382812 2.378907-66.910156 4.253907-90.078125-2.398437-6.035156-1.734375-12.535156-.53125-17.550781 3.246094-5.019531 3.78125-7.96875 9.695312-7.96875 15.976562v391.796875c-.0546875 21.40625 8.242188 41.542969 23.359375 56.699219s35.234375 23.503906 56.640625 23.503906h156c0 11.046875 8.953125 20 20 20s20-8.953125 20-20h156c44.113281 0 80-35.886719 80-80 0-11.046875-8.953125-20-20-20s-20 8.953125-20 20c0 22.054688-17.945312 40-40 40h-156v-372c0-22.054688 17.945312-40 40-40 29.195312 0 55.054688 1.644531 77.867188 3.09375 29.832031 1.898438 55.128906 3.507812 78.132812 1.011719v267.894531c0 11.046875 8.953125 20 20 20zm-412 120c-10.703125 0-20.761719-4.171875-28.320312-11.75-7.558594-7.578125-11.707032-17.648438-11.679688-28.402344v-367.742187c23.003906 2.496093 48.300781.886719 78.136719-1.011719 22.8125-1.449219 48.667969-3.09375 77.863281-3.09375 22.054688 0 40 17.945312 40 40v372zm352-336c0 11.046875-8.953125 20-20 20h-76c-11.046875 0-20-8.953125-20-20s8.953125-20 20-20h76c11.046875 0 20 8.953125 20 20zm0 70c0 11.046875-8.953125 20-20 20h-76c-11.046875 0-20-8.953125-20-20s8.953125-20 20-20h76c11.046875 0 20 8.953125 20 20zm-236-70c0 11.046875-8.953125 20-20 20h-86c-11.046875 0-20-8.953125-20-20s8.953125-20 20-20h86c11.046875 0 20 8.953125 20 20zm0 70c0 11.046875-8.953125 20-20 20h-86c-11.046875 0-20-8.953125-20-20s8.953125-20 20-20h86c11.046875 0 20 8.953125 20 20zm0 70c0 11.046875-8.953125 20-20 20h-86c-11.046875 0-20-8.953125-20-20s8.953125-20 20-20h86c11.046875 0 20 8.953125 20 20zm236 50c0 11.046875-8.953125 20-20 20h-76c-11.046875 0-20-8.953125-20-20s8.953125-20 20-20h76c11.046875 0 20 8.953125 20 20zm0 70c0 11.046875-8.953125 20-20 20h-76c-11.046875 0-20-8.953125-20-20s8.953125-20 20-20h76c11.046875 0 20 8.953125 20 20zm-236 0c0 11.046875-8.953125 20-20 20h-86c-11.046875 0-20-8.953125-20-20s8.953125-20 20-20h86c11.046875 0 20 8.953125 20 20zm0 0" fill="#6e6e6e"/></svg>
