<svg height="511pt" viewBox="-47 0 511 511.99278" width="511pt" xmlns="http://www.w3.org/2000/svg"><path d="m192.191406 29.28125h34.519532v105.601562h-34.519532zm0 0" fill="#f29500"/><path d="m213.957031 29.28125h12.753907v105.601562h-12.753907zm0 0" fill="#ffa90b"/><path d="m120.074219 144.617188c-3.941407 2.699218-22.832031 15.640624-24.1875 16.570312l-50.691407-73.988281 13.519532-9.261719 3.015625-2.066406 7.636719-5.242188zm0 0" fill="#f29500"/><path d="m120.074219 144.617188c-1.058594.726562 3.828125-2.621094-10.335938 7.082031l-51.023437-73.761719 3.015625-2.066406 7.636719-5.242188zm0 0" fill="#ffa90b"/><path d="m373.707031 87.199219-50.695312 73.988281-10.167969-6.96875-14.015625-9.601562 50.703125-73.988282 14.015625 9.601563zm0 0" fill="#f29500"/><path d="m373.707031 87.199219-50.695312 73.988281-10.167969-6.96875 50.703125-73.988281zm0 0" fill="#ffa90b"/><path d="m418.40625 303.039062c0 115.402344-93.554688 208.953126-208.957031 208.953126-115.402344 0-208.953125-93.550782-208.953125-208.953126 0-115.402343 93.550781-208.953124 208.953125-208.953124 115.402343 0 208.957031 93.550781 208.957031 208.953124zm0 0" fill="#ffb52d"/><path d="m277.476562 26.550781v.0625c0 7.316407-2.996093 13.972657-7.8125 18.789063-4.828124 4.828125-11.472656 7.824218-18.800781 7.824218h-82.824219c-14.644531 0-26.613281-11.980468-26.613281-26.613281 0-7.316406 2.996094-13.972656 7.8125-18.789062 4.421875-4.425781 10.375-7.316407 16.992188-7.761719.597656-.0429688 1.199219-.0625 1.808593-.0625h82.824219c14.625 0 26.582031 11.949219 26.613281 26.550781zm0 0" fill="#ffb52d"/><path d="m277.476562 26.550781c-.601562.042969-1.199218.0625-1.808593.0625h-82.824219c-14.625 0-26.582031-11.949219-26.613281-26.550781.597656-.0429688 1.199219-.0625 1.808593-.0625h82.824219c14.625 0 26.582031 11.949219 26.613281 26.550781zm0 0" fill="#ffc14f"/><path d="m345.222656 404.03125c-29.382812 39.644531-72.820312 62.722656-118.316406 67.457031-40.554688 4.238281-82.753906-6.121093-118.097656-32.320312-74.984375-55.589844-90.710938-161.433594-35.128906-236.414063 36.90625-49.785156 95.96875-73.453125 153.453124-67.457031 29.085938 3.027344 57.765626 13.652344 82.960938 32.328125 74.980469 55.582031 90.710938 161.425781 35.128906 236.40625zm0 0" fill="#d2d2d7"/><path d="m345.222656 404.03125c-29.382812 39.644531-72.820312 62.722656-118.316406 67.457031-29.082031-3.019531-57.761719-13.644531-82.960938-32.320312-74.980468-55.589844-90.710937-161.433594-35.128906-236.414063 29.382813-39.644531 72.824219-62.722656 118.316406-67.457031 29.085938 3.027344 57.765626 13.652344 82.960938 32.328125 74.980469 55.582031 90.710938 161.425781 35.128906 236.40625zm0 0" fill="#ebebf0"/><path d="m92.125 67.707031c0 7.222657-3.441406 14.332031-9.804688 18.703125l-27.089843 18.5625c-10.253907 7.027344-24.390625 4.382813-31.417969-5.871094-2.667969-3.882812-3.9375-8.316406-3.9375-12.722656 0-6.726562 2.976562-13.363281 8.546875-17.765625.402344-.320312.824219-.628906 1.261719-.929687l27.085937-18.5625c10.253907-7.027344 24.390625-4.390625 31.417969 5.863281.808594 1.175781 1.488281 2.40625 2.039062 3.675781 1.28125 2.90625 1.898438 5.984375 1.898438 9.046875zm0 0" fill="#ffb52d"/><path d="m90.226562 58.660156c-.40625.3125-.816406.621094-1.253906.921875l-27.085937 18.5625c-10.261719 7.027344-24.402344 4.390625-31.429688-5.859375-.804687-1.179687-1.476562-2.410156-2.035156-3.671875.402344-.320312.824219-.628906 1.261719-.929687l27.085937-18.5625c10.253907-7.027344 24.390625-4.390625 31.417969 5.863281.808594 1.175781 1.488281 2.40625 2.039062 3.675781zm0 0" fill="#ffc14f"/><path d="m399.027344 86.378906c0 4.40625-1.269532 8.839844-3.9375 12.722656-.453125.664063-.929688 1.285157-1.457032 1.882813-7.371093 8.671875-20.371093 10.5625-29.960937 3.988281l-27.089844-18.5625c-6.367187-4.371094-9.808593-11.480468-9.808593-18.703125 0-4.394531 1.28125-8.839843 3.9375-12.722656 7.019531-10.234375 21.117187-12.878906 31.367187-5.894531.023437.011718.03125.023437.054687.03125l27.085938 18.5625c6.378906 4.363281 9.808594 11.472656 9.808594 18.695312zm0 0" fill="#ffb52d"/><path d="m399.027344 86.378906c0 4.40625-1.269532 8.839844-3.9375 12.722656-.453125.664063-.929688 1.285157-1.457032 1.882813-.011718-.011719-.03125-.019531-.042968-.03125l-27.097656-18.5625c-6.367188-4.371094-9.796876-11.480469-9.796876-18.695313 0-4.402343 1.269532-8.835937 3.925782-12.722656.457031-.660156.929687-1.28125 1.457031-1.882812.023437.011718.03125.023437.054687.03125l27.085938 18.5625c6.378906 4.363281 9.808594 11.472656 9.808594 18.695312zm0 0" fill="#ffc14f"/><path d="m228.101562 200.574219c-4.28125 0-7.75 3.472656-7.75 7.753906v19.859375h-3.148437v-19.859375c0-4.28125-3.472656-7.753906-7.753906-7.753906s-7.75 3.472656-7.75 7.753906v19.859375h-3.148438v-19.859375c0-4.28125-3.46875-7.753906-7.75-7.753906s-7.753906 3.472656-7.753906 7.753906v31.914063c0 11.859374 7.867187 21.917968 18.652344 25.238281v132.375c0 4.277343 3.46875 7.75 7.75 7.75s7.753906-3.472657 7.753906-7.75v-132.375c10.785156-3.320313 18.648437-13.378907 18.648437-25.238281v-31.914063c0-4.28125-3.46875-7.753906-7.75-7.753906zm-18.652343 50.566406c-4.800781 0-8.878907-3.128906-10.328125-7.449219h20.660156c-1.449219 4.320313-5.527344 7.449219-10.332031 7.449219zm0 0" fill="#d63030"/><g fill="#f29500"><path d="m210.125 155.578125c-4.28125 0-7.753906 3.46875-7.753906 7.75v15.042969c0 4.28125 3.472656 7.753906 7.753906 7.753906s7.75-3.472656 7.75-7.753906v-15.042969c0-4.28125-3.46875-7.75-7.75-7.75zm0 0"/><path d="m146.714844 177.878906c-2.140625-3.707031-6.882813-4.976562-10.589844-2.835937s-4.976562 6.878906-2.835938 10.589843l7.523438 13.027344c1.433594 2.488282 4.039062 3.878906 6.71875 3.878906 1.3125 0 2.648438-.335937 3.867188-1.039062 3.707031-2.140625 4.976562-6.882812 2.835937-10.589844zm0 0"/><path d="m105.390625 233.585938-13.027344-7.519532c-3.710937-2.144531-8.449219-.871094-10.589843 2.835938-2.140626 3.707031-.867188 8.449218 2.839843 10.585937l13.027344 7.523438c1.222656.707031 2.554687 1.039062 3.867187 1.039062 2.679688 0 5.285157-1.390625 6.722657-3.875 2.140625-3.707031.871093-8.449219-2.839844-10.589843zm0 0"/><path d="m92.179688 302.71875c0-4.277344-3.46875-7.75-7.75-7.75h-15.046876c-4.28125 0-7.75 3.472656-7.75 7.75 0 4.28125 3.46875 7.753906 7.75 7.753906h15.046876c4.28125 0 7.75-3.472656 7.75-7.753906zm0 0"/><path d="m96.96875 358.609375-13.03125 7.519531c-3.707031 2.140625-4.976562 6.882813-2.835938 10.589844 1.433594 2.488281 4.039063 3.875 6.71875 3.875 1.316407 0 2.648438-.332031 3.867188-1.039062l13.03125-7.523438c3.707031-2.140625 4.976562-6.878906 2.835938-10.585938-2.136719-3.707031-6.882813-4.980468-10.585938-2.835937zm0 0"/><path d="m150.230469 404.613281c-3.707031-2.140625-8.445313-.867187-10.585938 2.839844l-7.523437 13.027344c-2.140625 3.707031-.867188 8.449219 2.839844 10.589843 1.21875.703126 2.550781 1.039063 3.867187 1.039063 2.679687 0 5.285156-1.390625 6.71875-3.875l7.523437-13.03125c2.140626-3.707031.871094-8.449219-2.839843-10.589844zm0 0"/><path d="m209.8125 420.664062c-4.28125 0-7.75 3.46875-7.75 7.75v15.042969c0 4.28125 3.46875 7.753907 7.75 7.753907s7.75-3.472657 7.75-7.753907v-15.042969c0-4.28125-3.46875-7.75-7.75-7.75zm0 0"/><path d="m278.089844 408.125c-2.140625-3.707031-6.882813-4.976562-10.589844-2.835938-3.707031 2.140626-4.976562 6.878907-2.835938 10.589844l7.523438 13.027344c1.4375 2.488281 4.042969 3.878906 6.71875 3.878906 1.316406 0 2.648438-.335937 3.871094-1.042968 3.707031-2.140626 4.976562-6.878907 2.835937-10.585938zm0 0"/><path d="m334.289062 367.296875-13.027343-7.523437c-3.710938-2.140626-8.449219-.871094-10.589844 2.835937-2.140625 3.710937-.871094 8.449219 2.835937 10.589844l13.03125 7.523437c1.222657.703125 2.554688 1.039063 3.867188 1.039063 2.679688 0 5.285156-1.390625 6.722656-3.878907 2.140625-3.707031.867188-8.445312-2.839844-10.585937zm0 0"/><path d="m349.515625 296.316406h-15.042969c-4.285156 0-7.753906 3.46875-7.753906 7.75s3.46875 7.75 7.753906 7.75h15.042969c4.28125 0 7.753906-3.46875 7.753906-7.75s-3.472656-7.75-7.753906-7.75zm0 0"/><path d="m318.066406 249.21875c1.3125 0 2.648438-.335938 3.867188-1.039062l13.03125-7.523438c3.707031-2.140625 4.976562-6.878906 2.835937-10.585938-2.140625-3.707031-6.878906-4.980468-10.589843-2.839843l-13.027344 7.523437c-3.707032 2.140625-4.980469 6.878906-2.839844 10.589844 1.4375 2.484375 4.042969 3.875 6.722656 3.875zm0 0"/><path d="m283.941406 175.714844c-3.707031-2.140625-8.449218-.867188-10.589844 2.839844l-7.519531 13.027343c-2.140625 3.707031-.871093 8.449219 2.835938 10.589844 1.222656.703125 2.554687 1.039063 3.867187 1.039063 2.679688 0 5.285156-1.390626 6.722656-3.875l7.519532-13.03125c2.144531-3.707032.871094-8.449219-2.835938-10.589844zm0 0"/></g><path d="m303.84375 295.992188h-126.699219c-4.078125-10.789063-16.429687-18.652344-31-18.652344-16.039062 0-38.417969 10.046875-38.417969 26.402344 0 16.359374 22.375 26.402343 38.417969 26.402343 14.570313 0 26.921875-7.863281 31-18.652343h126.699219c4.28125 0 7.75-3.46875 7.75-7.75s-3.46875-7.75-7.75-7.75zm-157.699219 18.648437c-11.363281 0-22.914062-6.992187-22.914062-10.898437s11.550781-10.898438 22.914062-10.898438c9.015625 0 16.925781 5.09375 16.925781 10.898438 0 5.804687-7.910156 10.898437-16.925781 10.898437zm0 0" fill="#f44545"/></svg>