<?xml version="1.0" encoding="iso-8859-1"?>
<!-- Generator: Adobe Illustrator 19.0.0, SVG Export Plug-In . SVG Version: 6.00 Build 0)  -->
<svg xmlns="http://www.w3.org/2000/svg" xmlns:xlink="http://www.w3.org/1999/xlink" version="1.1" id="Capa_1" x="0px" y="0px" viewBox="0 0 480 480" style="enable-background:new 0 0 480 480;" xml:space="preserve" width="512px" height="512px">
<g>
	<g>
		<path d="M308.015,0c-24.301,0-44,19.699-44,44v16c0.026,24.29,19.71,43.974,44,44c24.29-0.026,43.974-19.71,44-44V44    C352.015,19.699,332.316,0,308.015,0z M336.015,60c0,15.464-12.536,28-28,28s-28-12.536-28-28V44c0-15.464,12.536-28,28-28    s28,12.536,28,28V60z" fill="#6e6e6e"/>
	</g>
</g>
<g>
	<g>
		<path d="M476.425,97.313c-0.001,0-0.001-0.001-0.002-0.001l-24-16c-3.173-2.116-7.399-1.698-10.096,1l-68,68l-124.44-58.56    c-5.333-2.479-11.143-3.76-17.024-3.752h-87.376c-13.625-0.025-26.317,6.916-33.648,18.4l-62.552,97.272    c-2.363,3.672-1.345,8.561,2.288,10.984l24,16c3.308,2.213,7.74,1.657,10.4-1.304l69.6-77.352h46.4l-94.528,160H8.015    c-4.418,0-8,3.582-8,8v62.112c0.009,9.876,8.012,17.879,17.888,17.888c6.781,0.019,12.984-3.815,16-9.888l10.912-21.752    l87.632,6.264c14.653,1.053,28.705-6.011,36.6-18.4l41.176-64.712l77.304,56.208l-15.448,123.288    c-0.548,4.384,2.562,8.382,6.946,8.93c0.328,0.041,0.659,0.062,0.99,0.062h61.6c10.162,0.045,18.436-8.156,18.481-18.318    c0.027-6.208-3.077-12.012-8.257-15.434l-15.024-9.968l19.304-102.928c2.818-15.178-3.307-30.629-15.76-39.752l-65.6-47.712    l32.336-51.736l56.8,25.832c17.847,8.185,38.996,2.152,49.84-14.216l64.904-97.36C481.091,104.733,480.1,99.765,476.425,97.313z     M32.015,358.112l-12.416,24.8c-0.591,0.907-1.805,1.164-2.712,0.573c-0.476-0.31-0.794-0.811-0.872-1.373V328h16V358.112z     M184.015,136h-32c-2.267,0.001-4.427,0.963-5.944,2.648l-67.376,74.856l-11.696-7.8l58.296-90.68    c4.404-6.885,12.019-11.043,20.192-11.024h38.528V136z M155.519,347.608c-4.744,7.427-13.168,11.669-21.96,11.056l-85.544-6.112    V328h64c2.829,0.001,5.448-1.493,6.888-3.928L126.055,312l39.56,19.744L155.519,347.608z M342.935,459.56    c1.127,0.698,1.475,2.177,0.777,3.304c-0.448,0.724-1.246,1.156-2.097,1.136h-52.536l2-16h34.536L342.935,459.56z     M330.951,306.568c7.47,5.467,11.151,14.728,9.472,23.832L321.375,432h-28.296l10.872-87.008c0.369-2.885-0.856-5.743-3.2-7.464    l-11.776-8.544l23.768-35.656L330.951,306.568z M299.791,283.904l-23.776,35.664l-63.304-46.04    c-3.573-2.599-8.576-1.809-11.175,1.764c-0.098,0.134-0.191,0.272-0.281,0.412l-27.016,42.464l-40-20l46.752-79.112l78.992,35.904    L299.791,283.904z M307.327,176.72c-3.651-1.661-7.969-0.361-10.096,3.04l-36.288,58.056l-71.792-32.632l33.752-57.112    c1.477-2.482,1.501-5.567,0.064-8.072c-1.433-2.483-4.085-4.009-6.952-4h-16v-32h32.848c3.532,0.005,7.019,0.786,10.216,2.288    l99.448,46.792l-16.112,32.304L307.327,176.72z M400.455,196.92c-6.508,9.818-19.194,13.439-29.904,8.536L340.959,192    l16.056-32.112l15.592,7.344c3.051,1.438,6.677,0.808,9.064-1.576l67.36-67.36l11.888,7.92L400.455,196.92z" fill="#6e6e6e"/>
	</g>
</g>
<g>
</g>
<g>
</g>
<g>
</g>
<g>
</g>
<g>
</g>
<g>
</g>
<g>
</g>
<g>
</g>
<g>
</g>
<g>
</g>
<g>
</g>
<g>
</g>
<g>
</g>
<g>
</g>
<g>
</g>
</svg>
