<?xml version="1.0"?>
<svg xmlns="http://www.w3.org/2000/svg" height="512px" viewBox="-5 0 512 512.00023" width="512px"><path d="m498.855469 151.421875c10.714843-28.453125-9.078125-57.230469-35.96875-57.230469-7.527344 0-12.425781 2.035156-17.046875 3.964844-18.09375 7.304688-45.894532-7.714844-66.144532 3.898438-12.691406 7.273437-19.972656 21.390624-27.023437 35.035156-12.753906 24.75-15.5 28.1875-45.078125 33.898437-30.414062 5.851563-42.828125 11.242188-53.015625 60.097657-1.660156 7.960937-3.238281 15.554687-5.640625 20.652343-33.84375-20.363281-37.09375-20.507812-55.792969-48.921875-10.75-16.371094-22.9375-34.925781-44.003906-41.167968-33.589844-9.972657-68.980469 17.5625-111.875 23.800781-37.054687 5.414062-50.40625 50.136719-21.878906 71.429687 11.871093 9.277344 14.558593 26.78125 22.777343 41.570313-3.804687 5.539062-6.023437 12.257812-6.023437 19.476562 0 18.050781 13.925781 32.914063 31.59375 34.402344 11.203125 89.851563 88.039063 159.597656 180.878906 159.597656 23.066407-1.414062 59.941407 5.710938 107.847657-15.453125 22.4375-9.90625 42.367187-24.023437 59.230468-41.953125 2.855469-3.039062 2.714844-7.804687-.320312-10.660156-3.039063-2.855469-7.816406-2.707031-10.660156.320313-31.949219 33.960937-75.210938 52.664062-121.808594 52.664062h-34.289063c-84.460937 0-154.5-62.941406-165.652343-144.394531h45.671874c4.164063 0 7.542969-3.367188 7.542969-7.542969 0-4.160156-3.378906-7.539062-7.542969-7.539062-.125 0-58.628906.328124-62.164062-.464844-8.710938-1.910156-15.246094-9.691406-15.246094-18.976563 0-10.75 8.75-19.445312 19.4375-19.445312h390.183594c10.730469 0 19.449219 8.726562 19.449219 19.445312 0 10.6875-8.683594 19.441407-19.449219 19.441407-7.164062 0-287.71875 0-302.042969 0-4.195312 0-7.542969 3.410156-7.542969 7.539062 0 4.175781 3.378907 7.542969 7.542969 7.542969h.152344 289.589844c-3.347657 24.648437-12.167969 48.199219-25.953125 69.117187-2.292969 3.476563-1.335938 8.152344 2.140625 10.445313 3.441406 2.277343 8.144531 1.363281 10.449219-2.140625 15.457031-23.429688 25.171874-49.886719 28.597656-77.550782 17.679687-1.488281 31.597656-16.34375 31.597656-34.394531 0-19.042969-15.484375-34.53125-34.53125-34.53125h-77.171875c25.121094-7.355469 62.3125.554688 85.839844-22.566406 24.929687-24.5 18.066406-68.890625 33.34375-109.40625zm-375.191407 131.972656c3.421876-4.296875 5.5-8.550781 6.695313-11.578125 20.691406 6.953125 13.820313 4.644532 34.457031 11.578125zm88.527344 0-33.601562-11.28125c.019531-3.234375-.625-28.898437-24.855469-45.429687-3.441406-2.347656-8.132813-1.460938-10.480469 1.980468-2.347656 3.441407-1.460937 8.132813 1.980469 10.480469 12.828125 8.753907 16.652344 20.917969 17.789063 27.75l-66.945313-22.484375c-.261719-6.402344-2.789063-28.996094-24.824219-44.03125-3.441406-2.347656-8.132812-1.460937-10.480468 1.980469-2.347657 3.441406-1.460938 8.132813 1.980468 10.480469 11.9375 8.148437 16.078125 19.253906 17.515625 26.261718l-20.003906-6.71875c-3.953125-1.328124-8.226563.796876-9.550781 4.746094-1.328125 3.941406.804687 8.226563 4.746094 9.542969l60.589843 20.351563c-5.394531 12.785156-16.113281 15.355468-17.910156 16.375h-31.480469c-6.171875 0-11.964844 1.628906-16.984375 4.472656-6.636719-13.726563-10.667969-32.046875-25.261719-43.070313-17.953124-13.417969-8.421874-40.980469 15.035157-44.425781 43.738281-6.355469 78.484375-32.261719 105.40625-24.265625 25.5 7.5625 35.433593 41.976563 56.183593 61.59375 20.058594 18.960937 52.027344 29.773437 64.398438 45.695313h-53.246094zm161.648438-13.996093c-10.136719 3.226562-19.890625 8.476562-29.351563 13.996093h-44.832031l54.9375-50.300781c1.863281 1.046875 12.136719 6.414062 26.296875 6.414062 7.609375 0 16.34375-1.554687 25.488281-6.160156 3.722656-1.875 5.21875-6.410156 3.34375-10.128906s-6.40625-5.214844-10.128906-3.34375c-13.863281 6.984375-26.355469 4.445312-32.886719 2.132812l.003907-.003906 52.078124-47.683594c14.792969 7.40625 33.703126 8.082032 50.546876-.398437 3.71875-1.875 5.21875-6.410156 3.34375-10.128906-1.875-3.722657-6.410157-5.21875-10.128907-3.34375-12.90625 6.5-24.628906 4.746093-31.453125 2.609375 9.625-8.816406 5.945313-5.445313 15.558594-14.25 3.078125-2.808594 3.289062-7.582032.472656-10.652344-2.804687-3.074219-7.582031-3.285156-10.648437-.472656-2.863281 2.625-44.472657 40.714844-47.144531 43.164062-2.886719-3.671875-7.582032-11.539062-5.753907-22.234375.699219-4.105469-2.0625-8.003906-6.167969-8.703125-4.097656-.699218-8.003906 2.058594-8.703124 6.164063-2.90625 17.039062 4.90625 29.394531 9.5 34.964843-3.269532 2.992188-53.660157 49.132813-57.09375 52.273438l-.003907.007812c-2.242187-2.398437-9.261719-11.078124-7.089843-23.820312.703124-4.105469-2.058594-8-6.164063-8.699219-4.101563-.699219-8 2.058594-8.703125 6.164063-3.21875 18.851562 6.695312 31.976562 10.839844 36.515625l-28.847656 26.417969c-4.285157-7.875-11.222657-14.210938-19.449219-20 9.199219-17.21875 7.617187-48.722657 22.867187-64.613282 11.121094-11.585937 41.597656-6.984375 61.664063-22.605468 8.464843-6.59375 13.996093-17.316407 19.847656-28.667969 11.554687-22.378907 17.523437-31.457031 33.507813-31.457031 15.933593 0 35.558593 6.917968 53.570312-1.125 20.421875-9.207032 39.941406 12.464843 31.582031 34.671874-15.566406 41.242188-9.796875 84.320313-29.804687 103.96875-19.023438 18.699219-53.722656 10.628907-81.09375 19.328126zm0 0" fill="#67b82d"/><path d="m170.421875 90.421875c24.929687 0 45.210937-20.28125 45.210937-45.210937 0-24.929688-20.28125-45.210938-45.210937-45.210938s-45.210937 20.28125-45.210937 45.210938c0 24.929687 20.28125 45.210937 45.210937 45.210937zm0-75.339844c16.609375 0 30.125 13.515625 30.125 30.128907 0 16.609374-13.515625 30.125-30.125 30.125-16.613281 0-30.128906-13.515626-30.128906-30.125.003906-16.613282 13.515625-30.128907 30.128906-30.128907zm0 0" fill="#67b82d"/><path d="m261.757812 163.648438c24.925782 0 45.207032-20.28125 45.207032-45.207032 0-33.339844-34.855469-54.972656-64.582032-40.863281-3.761718 1.789063-5.363281 6.285156-3.578124 10.050781 1.785156 3.761719 6.289062 5.363282 10.046874 3.578125 19.886719-9.441406 43.03125 5.128907 43.03125 27.234375 0 16.609375-13.515624 30.125-30.128906 30.125-20.597656 0-35.152344-20.324218-28.53125-39.824218 1.339844-3.945313-.773437-8.230469-4.714844-9.566407-3.945312-1.339843-8.230468.769531-9.566406 4.714844-9.941406 29.273437 11.910156 59.757813 42.816406 59.757813zm0 0" fill="#67b82d"/></svg>
