<?xml version="1.0"?>
<svg xmlns="http://www.w3.org/2000/svg" height="512px" viewBox="0 0 512.00101 512" width="512px"><path d="m493.300781 133.417969c-9.011719-13.707031-20.941406-25.335938-34.773437-33.964844.09375-1.503906.152344-3.007813.152344-4.519531 0-39.121094-31.828126-70.949219-70.953126-70.949219-14.546874 0-28.5 4.496094-40.140624 12.484375-17.683594-22.554688-45.101563-36.46875-74.777344-36.46875-22.644532 0-44.082032 7.984375-60.9375 22.125-14.140625-13.914062-33.414063-22.125-53.980469-22.125-34.910156 0-64.464844 23.367188-73.84375 55.285156-2.347656-.214844-4.714844-.324218-7.101563-.324218-42.425781 0-76.945312 34.519531-76.945312 76.945312 0 15.636719 4.757812 30.855469 13.378906 43.59375-8.789062 16.175781-13.378906 33.839844-13.378906 51.839844 0 60.886718 49.984375 110.425781 111.421875 110.425781 10.929687 0 21.566406-1.558594 31.796875-4.640625 5.535156 13.257812 11.605469 26.222656 17.445312 38.679688 13.476563 28.761718 26.203126 55.925781 26.203126 73.882812v45.96875c0 11.039062 8.949218 19.984375 19.988281 19.984375h99.929687c11.039063 0 19.984375-8.945313 19.984375-19.984375v-45.96875c0-3.996094 1.003907-11.367188 5.789063-23.804688 3.960937-10.304687-1.183594-21.867187-11.484375-25.828124-10.304688-3.960938-21.863281 1.179687-25.828125 11.484374-5.683594 14.785157-8.445313 27.261719-8.445313 38.148438v25.980469h-59.960937v-25.980469c0-26.859375-14.5625-57.9375-29.980469-90.84375-12.003906-25.609375-25.117187-53.617188-31.023437-79.746094 8.171874 2.441406 16.539062 3.707032 24.921874 3.707032h.140626c4.488281-.007813 8.933593-.375 13.3125-1.046876 6.617187 21.433594 14.136718 38.140626 22.445312 49.765626 12.480469 17.472656 24.855469 21.179687 33.105469 21.179687h.203125c23.296875-.175781 38.203125-23.011719 53.980468-47.191406 3.988282-6.117188 8.050782-12.332031 12.21875-18.191407 9.886719 8.214844 21.058594 14.703126 32.96875 19.195313-5.664062 7.117187-11.4375 14.769531-17.050781 22.640625-6.410156 8.988281-4.320312 21.46875 4.664063 27.878906 3.519531 2.507813 7.574218 3.714844 11.589844 3.714844 6.238281 0 12.386718-2.914062 16.289062-8.378906 10.542969-14.785156 21.535156-28.574219 30.894531-38.824219 19.257813-1.253906 38.265625-7.734375 55.300781-18.9375 25.332032-16.65625 42.660157-42.179687 48.796876-71.871094 6.132812-29.6875.339843-59.988281-16.316407-85.320312zm-232.34375 173.167969c-3.984375-4.777344-11.429687-16.542969-19.464843-43.585938 3.007812-2.050781 5.910156-4.273438 8.671874-6.683594 8.625 6.261719 20.398438 12.699219 35.105469 16.027344-1.640625 2.480469-3.242187 4.933594-4.800781 7.324219-5.773438 8.847656-13.976562 21.417969-19.511719 26.917969zm209.515625-95.933594c-3.976562 19.234375-15.203125 35.769531-31.613281 46.558594-12.277344 8.074218-25.898437 12.433593-39.390625 12.601562-14.585938.183594-28.949219-4.230469-41.132812-12.292969 4.792968-3.847656 9.195312-8.253906 13.085937-13.210937 13.359375-17 19.296875-38.183594 16.722656-59.652344-1.316406-10.957031-11.273437-18.78125-22.222656-17.460938-10.960937 1.3125-18.777344 11.261719-17.464844 22.222657 1.304688 10.867187-1.703125 21.589843-8.464843 30.195312-4.878907 6.203125-11.289063 10.761719-18.5625 13.316407-.742188.070312-1.488282.171874-2.234376.328124-33.765624 7.035157-52.992187-15.472656-54.527343-17.355468-3.808594-5.171875-9.785157-8.023438-16.164063-7.964844-6.453125.0625-12.351562 3.417969-16.050781 8.707031-9.695313 13.867188-25.253906 22.160157-41.621094 22.1875-.023437 0-.046875 0-.070312 0-10.007813 0-20.695313-3.621093-30.097657-10.195312-1.808593-1.265625-3.757812-2.175781-5.757812-2.769531-2.972656-2.242188-6.59375-3.6875-10.582031-3.972657-10.988281-.789062-20.574219 7.5-21.359375 18.511719-1.296875 18.148438 1.601562 36.652344 6.789062 54.988281-5.917968 1.589844-12.046875 2.394531-18.332031 2.394531-39.398437 0-71.449219-31.605468-71.449219-70.449218 0-18.433594 7.726563-32.847656 14.207032-41.695313 5.96875-8.148437 4.917968-19.46875-2.445313-26.382812-7.476563-7.015625-11.761719-16.984375-11.761719-27.355469 0-20.386719 16.585938-36.972656 36.972656-36.972656 5.453126 0 10.710938 1.164062 15.625 3.460937 6.378907 2.984375 13.851563 2.390625 19.679688-1.5625 5.828125-3.949219 9.144531-10.675781 8.734375-17.703125-.046875-.828125-.070313-1.542968-.070313-2.183594 0-20.386718 16.585938-36.972656 36.976563-36.972656 13.675781 0 26.160156 7.5625 32.570313 19.492188 2.640624 7.324218 3.140624 15.257812 1.347656 23.027344-2.460938 10.664062-8.929688 19.730468-18.210938 25.53125-9.359375 5.847656-12.203125 18.179687-6.355468 27.539062 3.792968 6.066406 10.304687 9.394531 16.96875 9.394531 3.617187 0 7.28125-.980469 10.574218-3.039062 18.335938-11.457031 31.109375-29.371094 35.972656-50.4375 2.523438-10.945313 2.734376-22.058594.769532-32.78125 10.371094-11.835938 25.300781-18.726563 41.28125-18.726563 23.1875 0 43.996094 14.671875 51.78125 36.511719 2.621094 7.359375 9.292968 12.515625 17.078125 13.199219 7.777343.683594 15.253906-3.234375 19.117187-10.027344 5.511719-9.683594 15.835938-15.699219 26.941406-15.699219 17.082032 0 30.980469 13.894531 30.980469 30.976563 0 3.121094-.460937 6.199218-1.371093 9.152344-3.214844 10.425781 2.535156 21.460937 12.855468 24.855468.941406.753906 1.953125 1.441406 3.054688 2.03125 10.710937 5.734375 19.925781 14.171875 26.65625 24.40625 10.789062 16.410156 14.542968 36.039063 10.570312 55.273438zm0 0" fill="#6e6e6e"/></svg>
